<svg width="32" height="32" viewBox="0 0 32 32" fill="none" xmlns="http://www.w3.org/2000/svg">
  <!-- Apartment Building Base -->
  <rect x="4" y="8" width="24" height="20" rx="2" fill="#1f2937" stroke="#374151" stroke-width="1"/>
  
  <!-- Windows Grid -->
  <!-- Row 1 -->
  <rect x="7" y="11" width="3" height="3" rx="0.5" fill="#3b82f6"/>
  <rect x="12" y="11" width="3" height="3" rx="0.5" fill="#3b82f6"/>
  <rect x="17" y="11" width="3" height="3" rx="0.5" fill="#3b82f6"/>
  <rect x="22" y="11" width="3" height="3" rx="0.5" fill="#3b82f6"/>
  
  <!-- Row 2 -->
  <rect x="7" y="16" width="3" height="3" rx="0.5" fill="#3b82f6"/>
  <rect x="12" y="16" width="3" height="3" rx="0.5" fill="#3b82f6"/>
  <rect x="17" y="16" width="3" height="3" rx="0.5" fill="#3b82f6"/>
  <rect x="22" y="16" width="3" height="3" rx="0.5" fill="#3b82f6"/>
  
  <!-- Row 3 -->
  <rect x="7" y="21" width="3" height="3" rx="0.5" fill="#3b82f6"/>
  <rect x="12" y="21" width="3" height="3" rx="0.5" fill="#3b82f6"/>
  <rect x="17" y="21" width="3" height="3" rx="0.5" fill="#3b82f6"/>
  <rect x="22" y="21" width="3" height="3" rx="0.5" fill="#3b82f6"/>
  
  <!-- Entrance -->
  <rect x="14" y="24" width="4" height="4" rx="1" fill="#6b7280"/>
  
  <!-- Roof -->
  <path d="M2 8 L16 2 L30 8 L30 10 L2 10 Z" fill="#374151"/>
  
  <!-- Building Accent -->
  <rect x="6" y="6" width="20" height="2" rx="1" fill="#1d4ed8"/>
</svg>
